<svg width="24" height="24" viewBox="0 0 24 24" fill="none" xmlns="http://www.w3.org/2000/svg">
<path fill-rule="evenodd" clip-rule="evenodd" d="M13 20C13 16.134 16.134 13 20 13V11C15.0294 11 11 15.0294 11 20H13Z" fill="#2A1F09"/>
<path fill-rule="evenodd" clip-rule="evenodd" d="M13 4C13 7.86599 16.134 11 20 11V13C15.0294 13 11 8.97056 11 4H13Z" fill="#2A1F09"/>
<path fill-rule="evenodd" clip-rule="evenodd" d="M11 20C11 16.134 7.86599 13 4 13V11C8.97056 11 13 15.0294 13 20H11Z" fill="#2A1F09"/>
<path fill-rule="evenodd" clip-rule="evenodd" d="M11 4C11 7.86599 7.86599 11 4 11V13C8.97056 13 13 8.97056 13 4H11Z" fill="#2A1F09"/>
</svg>
