<svg width="24" height="24" viewBox="0 0 24 24" fill="none" xmlns="http://www.w3.org/2000/svg">
<path fill-rule="evenodd" clip-rule="evenodd" d="M6.08181 3.59263L12 3L17.9181 3.59263L22.5 9.4185L12 20.9999L1.5 9.4185L6.08181 3.59263Z" fill="#FDB300"/>
<path d="M5.75297 9.41852L11.9999 21L1.5 9.41852H5.75297ZM18.247 9.41852L12.0001 21L22.5 9.41852" fill="#EA6C00"/>
<path fill-rule="evenodd" clip-rule="evenodd" d="M5.75293 9.41852H18.2468L11.9999 21" fill="#FDAD00"/>
<path d="M11.9999 3L6.08172 3.59253L5.75293 9.41844L11.9999 3ZM12 3L17.9182 3.59253L18.2469 9.41844" fill="#FDD231"/>
<path d="M22.5 9.41844L17.9182 3.59253L18.247 9.41844H22.5ZM1.5 9.41844L6.08176 3.59253L5.75297 9.41844" fill="#FDAD00"/>
<path fill-rule="evenodd" clip-rule="evenodd" d="M11.9999 3L5.75293 9.41844H18.2468" fill="#FEEEB7"/>
</svg>
