<svg width="24" height="24" viewBox="0 0 24 24" fill="none" xmlns="http://www.w3.org/2000/svg">
<path fill-rule="evenodd" clip-rule="evenodd" d="M5 20C5 16.134 8.13401 13 12 13V11C7.02944 11 3 15.0294 3 20H5Z" fill="#0A0A0A"/>
<path fill-rule="evenodd" clip-rule="evenodd" d="M5 4C5 7.86599 8.13401 11 12 11V13C7.02944 13 3 8.97056 3 4H5Z" fill="#0A0A0A"/>
<path fill-rule="evenodd" clip-rule="evenodd" d="M19 20C19 16.134 15.866 13 12 13V11C16.9706 11 21 15.0294 21 20H19Z" fill="#0A0A0A"/>
<path fill-rule="evenodd" clip-rule="evenodd" d="M19 4C19 7.86599 15.866 11 12 11V13C16.9706 13 21 8.97056 21 4H19Z" fill="#0A0A0A"/>
<rect x="11" y="4" width="2" height="8" fill="#0A0A0A"/>
<rect x="11" y="12" width="2" height="8" fill="#0A0A0A"/>
</svg>
