<svg width="1200" height="146" viewBox="0 0 1200 146" fill="none" xmlns="http://www.w3.org/2000/svg">
<g filter="url(#filter0_i_1850_876)">
<path d="M0 142.737H45.0357C85.7726 142.737 114.227 122.958 114.227 71.3687C114.227 19.7793 85.7726 0 45.0357 0H0V142.737ZM24.1555 122.346V20.3911H45.0357C75.7419 20.3911 90.0714 34.6648 90.0714 71.3687C90.0714 108.073 75.7419 122.346 45.0357 122.346H24.1555Z" fill="#D9D9D9"/>
<path d="M201.14 79.9329V142.737H224.681V75.6508C224.681 49.1425 211.375 37.5195 192.951 37.5195C176.165 37.5195 163.883 46.0838 157.537 58.9302V0H133.996V142.737H157.537V93.1871C157.537 67.9022 169.41 57.9106 182.921 57.9106C193.156 57.9106 201.14 62.1927 201.14 79.9329Z" fill="#D9D9D9"/>
<path d="M249.105 142.737H272.647V40.7821H249.105V142.737ZM246.649 25.8966H274.899V1.8352H246.649V25.8966Z" fill="#D9D9D9"/>
<path d="M297.93 142.737H321.471V93.1871C321.471 67.9022 331.911 57.9106 345.627 57.9106C355.862 57.9106 363.027 62.1927 363.027 79.9329V142.737H386.568V93.1871C386.568 67.9022 397.008 57.9106 410.724 57.9106C420.959 57.9106 428.124 62.1927 428.124 79.9329V142.737H451.665V75.6508C451.665 49.1425 439.178 37.5195 420.754 37.5195C403.15 37.5195 390.662 47.1033 384.931 60.9693C381.041 44.8603 370.192 37.5195 355.657 37.5195C339.281 37.5195 327.408 45.8799 321.471 58.3184V40.7821H297.93V142.737Z" fill="#D9D9D9"/>
<path d="M504.032 146C523.07 146 533.919 135.193 538.218 120.919V142.737H561.76V75.8547C561.76 46.0838 542.108 37.5195 518.157 37.5195C490.931 37.5195 472.302 53.6285 472.302 74.0195L495.639 76.0586C495.639 63.0084 504.646 57.9106 518.157 57.9106C529.825 57.9106 536.171 61.9888 537.809 68.514C539.447 75.6508 534.329 80.5447 519.999 81.3603C497.481 82.3799 469.436 87.2737 469.436 114.19C469.436 135.397 487.655 146 504.032 146ZM493.592 112.763C493.592 103.383 503.418 99.9162 514.882 98.8966C524.708 97.8771 533.51 96.8575 538.218 89.7207V93.1871C538.218 116.025 523.275 125.609 510.173 125.609C499.324 125.609 493.592 120.307 493.592 112.763Z" fill="#D9D9D9"/>
<path d="M624.779 146C649.344 146 670.224 132.95 670.224 111.947C670.224 68.514 603.899 89.9246 603.899 68.9218C603.899 61.3771 611.064 57.9106 622.732 57.9106C635.424 57.9106 642.589 61.7849 642.589 70.9609L665.925 68.9218C665.925 46.6955 644.431 37.5195 622.732 37.5195C599.395 37.5195 579.744 49.3464 579.744 68.9218C579.744 111.743 646.069 87.4776 646.069 111.947C646.069 120.715 637.881 125.609 624.779 125.609C607.789 125.609 598.577 120.103 598.577 106.645L575.445 108.684C575.445 134.377 597.758 146 624.779 146Z" fill="#D9D9D9"/>
<path d="M730.199 142.737H754.354V85.2346H778.101C808.807 85.2346 830.71 70.1452 830.71 42.6173C830.71 14.4777 808.807 0 778.101 0H730.199V142.737ZM754.354 65.0475V20.3911H778.101C795.091 20.3911 806.555 25.6927 806.555 42.6173C806.555 59.7458 795.091 65.0475 778.101 65.0475H754.354Z" fill="#D9D9D9"/>
<path d="M877.085 146C893.666 146 906.153 137.232 912.499 124.385V142.737H936.041V40.7821H912.499V90.3324C912.499 115.617 900.831 125.609 887.116 125.609C876.88 125.609 868.896 121.327 868.896 103.587V40.7821H845.355V107.869C845.355 134.377 858.661 146 877.085 146Z" fill="#D9D9D9"/>
<path d="M1001.64 142.737H1023.13V122.346H1004.71C996.517 122.346 992.423 118.268 992.423 110.112V61.1732H1023.13V40.7821H992.423V7.95252H968.882V40.7821H946.773V61.1732H968.882V111.539C968.882 132.542 980.55 142.737 1001.64 142.737Z" fill="#D9D9D9"/>
<path d="M1038.95 142.737H1062.49V98.8966C1062.49 72.3882 1069.65 61.1732 1087.26 61.1732H1104.04V40.7821H1085.21C1073.13 40.7821 1065.97 50.3659 1062.49 64.0279V40.7821H1038.95V142.737Z" fill="#D9D9D9"/>
<path d="M1142.27 146C1161.31 146 1172.16 135.193 1176.46 120.919V142.737H1200V75.8547C1200 46.0838 1180.35 37.5195 1156.4 37.5195C1129.17 37.5195 1110.54 53.6285 1110.54 74.0195L1133.88 76.0586C1133.88 63.0084 1142.89 57.9106 1156.4 57.9106C1168.07 57.9106 1174.41 61.9888 1176.05 68.514C1177.69 75.6508 1172.57 80.5447 1158.24 81.3603C1135.72 82.3799 1107.68 87.2737 1107.68 114.19C1107.68 135.397 1125.9 146 1142.27 146ZM1131.83 112.763C1131.83 103.383 1141.66 99.9162 1153.12 98.8966C1162.95 97.8771 1171.75 96.8575 1176.46 89.7207V93.1871C1176.46 116.025 1161.52 125.609 1148.41 125.609C1137.56 125.609 1131.83 120.307 1131.83 112.763Z" fill="#D9D9D9"/>
</g>
<defs>
<filter id="filter0_i_1850_876" x="0" y="0" width="1200" height="147" filterUnits="userSpaceOnUse" color-interpolation-filters="sRGB">
<feFlood flood-opacity="0" result="BackgroundImageFix"/>
<feBlend mode="normal" in="SourceGraphic" in2="BackgroundImageFix" result="shape"/>
<feColorMatrix in="SourceAlpha" type="matrix" values="0 0 0 0 0 0 0 0 0 0 0 0 0 0 0 0 0 0 127 0" result="hardAlpha"/>
<feOffset dy="1"/>
<feGaussianBlur stdDeviation="1.5"/>
<feComposite in2="hardAlpha" operator="arithmetic" k2="-1" k3="1"/>
<feColorMatrix type="matrix" values="0 0 0 0 0 0 0 0 0 0 0 0 0 0 0 0 0 0 0.08 0"/>
<feBlend mode="normal" in2="shape" result="effect1_innerShadow_1850_876"/>
</filter>
</defs>
</svg>
