<svg width="60" height="24" viewBox="0 0 60 24" fill="none" xmlns="http://www.w3.org/2000/svg">
<path d="M14.3314 24H19.0629V0H14.3314V9.6H4.73143V0H0V24H4.73143V13.4743H14.3314V24Z" fill="#0A0A0A"/>
<path d="M24.0402 24H31.9259C38.7145 24 43.8573 20.9143 43.8573 12C43.8573 3.08571 38.7145 0 31.9259 0H24.0402V24ZM28.7716 20.1257V3.87429H31.9259C36.863 3.87429 39.1259 6 39.1259 12C39.1259 18 36.863 20.1257 31.9259 20.1257H28.7716Z" fill="#0A0A0A"/>
<path fill-rule="evenodd" clip-rule="evenodd" d="M53.1836 11C53.2094 11 53.2355 11 53.262 11H53.6794C53.7059 11 53.732 11 53.7578 11C54.653 10.9999 55.1895 10.9999 55.6496 11.0829C57.7936 11.4697 59.4717 13.1478 59.8585 15.2918C59.9415 15.752 59.9415 16.2885 59.9414 17.1836V17.3404C59.9415 18.2355 59.9415 18.772 59.8585 19.2322C59.4717 21.3762 57.7936 23.0542 55.6496 23.441C55.1895 23.5241 54.653 23.524 53.7578 23.524H53.1836C52.2885 23.524 51.752 23.5241 51.2918 23.441C49.1478 23.0542 47.4697 21.3762 47.0829 19.2322C46.9999 18.772 46.9999 18.2355 47 17.3404C47 17.3145 47 17.2884 47 17.262C47 17.2355 47 17.2094 47 17.1836C46.9999 16.2885 46.9999 15.752 47.0829 15.2918C47.4697 13.1478 49.1478 11.4697 51.2918 11.0829C51.752 10.9999 52.2885 10.9999 53.1836 11ZM53.262 12.2524C52.265 12.2524 51.8495 12.2549 51.5142 12.3154C49.8847 12.6094 48.6094 13.8847 48.3154 15.5142C48.2549 15.8495 48.2524 16.265 48.2524 17.262C48.2524 18.259 48.2549 18.6744 48.3154 19.0098C48.6094 20.6392 49.8847 21.9146 51.5142 22.2085C51.8495 22.269 52.265 22.2716 53.262 22.2716H53.6794C54.6764 22.2716 55.0919 22.269 55.4273 22.2085C57.0567 21.9146 58.332 20.6392 58.626 19.0098C58.6865 18.6744 58.689 18.259 58.689 17.262C58.689 16.265 58.6865 15.8495 58.626 15.5142C58.332 13.8847 57.0567 12.6094 55.4273 12.3154C55.0919 12.2549 54.6764 12.2524 53.6794 12.2524H53.262Z" fill="#0A0A0A"/>
<path d="M53.5156 21.2912C55.3341 21.2912 56.8821 20.3744 57.0925 18.3305L55.244 18.1802C55.0636 19.2773 54.4625 19.7883 53.5156 19.7883C52.2232 19.7883 51.592 18.8415 51.592 17.3236C51.592 15.8959 52.2382 14.7988 53.5156 14.7988C54.5526 14.7988 55.0636 15.3999 55.244 16.497L57.0925 16.3467C56.8671 14.3028 55.3492 13.2959 53.5156 13.2959C51.5769 13.2959 49.7134 14.5884 49.7134 17.3386C49.7134 20.0739 51.5769 21.2912 53.5156 21.2912Z" fill="#0A0A0A"/>
</svg>
