<svg width="46" height="46" viewBox="0 0 46 46" fill="none" xmlns="http://www.w3.org/2000/svg">
<path fill-rule="evenodd" clip-rule="evenodd" d="M22.5788 0H23.4212V14.9402C23.4212 19.1588 26.8412 22.5788 31.0598 22.5788H46V23.4212H31.0598C26.8412 23.4212 23.4212 26.8412 23.4212 31.0598V46H22.5788V31.0598C22.5788 26.8412 19.1588 23.4212 14.9402 23.4212H0V22.5788H14.9402C19.1588 22.5788 22.5788 19.1588 22.5788 14.9402V0ZM23 24.912C24.056 24.912 24.912 24.056 24.912 23C24.912 21.944 24.056 21.088 23 21.088C21.944 21.088 21.088 21.944 21.088 23C21.088 24.056 21.944 24.912 23 24.912Z" fill="white"/>
</svg>
