<svg width="24" height="24" viewBox="0 0 24 24" fill="none" xmlns="http://www.w3.org/2000/svg">
<path fill-rule="evenodd" clip-rule="evenodd" d="M18.2929 18.7071C18.6834 18.3166 18.6834 17.6834 18.2929 17.2929L6.97918 5.97918C6.58866 5.58866 5.9555 5.58866 5.56497 5.97918C5.17445 6.36971 5.17445 7.00287 5.56497 7.3934L16.8787 18.7071C17.2692 19.0976 17.9024 19.0976 18.2929 18.7071Z" fill="white"/>
<path fill-rule="evenodd" clip-rule="evenodd" d="M5.70711 18.7071C5.31658 18.3166 5.31658 17.6834 5.70711 17.2929L17.0208 5.97918C17.4113 5.58866 18.0445 5.58866 18.435 5.97918C18.8256 6.36971 18.8256 7.00287 18.435 7.3934L7.12132 18.7071C6.7308 19.0976 6.09763 19.0976 5.70711 18.7071Z" fill="white"/>
</svg>
