<svg width="24" height="24" viewBox="0 0 24 24" fill="none" xmlns="http://www.w3.org/2000/svg">
<path d="M15.4739 21.3801C15.1188 18.85 14.5273 16.5537 13.6946 14.3832C11.6564 15.3714 9.37665 17.098 6.24201 20.1769C5.69355 19.79 5.18576 19.3493 4.7263 18.8625C8.01856 15.6158 10.5332 13.6746 12.9159 12.5385C12.6102 11.8757 12.2806 11.2223 11.9268 10.575C9.12132 11.4591 5.92256 11.925 2 11.9916C2.00056 11.3052 2.07029 10.6349 2.2026 9.98739C5.66439 9.91321 8.46482 9.51255 10.8886 8.80045C9.76358 6.9952 8.44495 5.21328 6.92953 3.37899C7.52043 3.0307 8.15027 2.74143 8.81095 2.51929C10.3402 4.39883 11.6801 6.24611 12.8274 8.13527C14.9832 7.28321 16.894 6.13323 18.8013 4.6691C19.2916 5.12413 19.7361 5.62775 20.1273 6.17228C18.1434 7.70682 16.1203 8.95053 13.829 9.8881C14.1662 10.5179 14.4826 11.1547 14.778 11.801C17.0447 11.0827 19.2758 11.0085 21.9507 11.0009C21.9833 11.3295 22 11.6628 22 12C22 12.338 21.9832 12.672 21.9505 13.0014C19.3662 13.0106 17.4495 13.0833 15.5567 13.6532C16.3694 15.7687 16.9706 18.0051 17.3566 20.4459C16.768 20.82 16.1375 21.1342 15.4739 21.3801Z" fill="white"/>
<path fill-rule="evenodd" clip-rule="evenodd" d="M12 20C16.4183 20 20 16.4183 20 12C20 7.58172 16.4183 4 12 4C7.58172 4 4 7.58172 4 12C4 16.4183 7.58172 20 12 20ZM12 22C17.5228 22 22 17.5228 22 12C22 6.47715 17.5228 2 12 2C6.47715 2 2 6.47715 2 12C2 17.5228 6.47715 22 12 22Z" fill="white"/>
</svg>
