<svg width="24" height="24" viewBox="0 0 24 24" fill="none" xmlns="http://www.w3.org/2000/svg">
<path fill-rule="evenodd" clip-rule="evenodd" d="M8.39856 2H15.6014C16.4959 1.99999 17.234 1.99997 17.8354 2.04911C18.4599 2.10013 19.034 2.20965 19.5733 2.48442C20.4096 2.91052 21.0895 3.59043 21.5156 4.42671C21.7904 4.96597 21.8999 5.54009 21.9509 6.16464C22 6.76596 22 7.50413 22 8.39853V15.6015C22 16.4959 22 17.234 21.9509 17.8354C21.8999 18.4599 21.7904 19.034 21.5156 19.5733C21.0895 20.4096 20.4096 21.0895 19.5733 21.5156C19.034 21.7904 18.4599 21.8999 17.8354 21.9509C17.234 22 16.4959 22 15.6015 22H8.39853C7.50413 22 6.76596 22 6.16464 21.9509C5.54009 21.8999 4.96597 21.7904 4.42671 21.5156C3.59043 21.0895 2.91052 20.4096 2.48442 19.5733C2.20965 19.034 2.10013 18.4599 2.04911 17.8354C1.99997 17.234 1.99999 16.4959 2 15.6014V8.39856C1.99999 7.50415 1.99997 6.76597 2.04911 6.16464C2.10013 5.54009 2.20965 4.96597 2.48442 4.42671C2.91052 3.59043 3.59043 2.91052 4.42671 2.48442C4.96597 2.20965 5.54009 2.10013 6.16464 2.04911C6.76597 1.99997 7.50415 1.99999 8.39856 2ZM6.3456 4.26395C5.85847 4.30375 5.60936 4.37589 5.43558 4.46443C5.01744 4.67748 4.67748 5.01744 4.46443 5.43558C4.37589 5.60936 4.30375 5.85847 4.26395 6.3456C4.22309 6.8457 4.22222 7.49269 4.22222 8.44445V15.5556C4.22222 16.5073 4.22309 17.1543 4.26395 17.6544C4.30375 18.1415 4.37589 18.3906 4.46443 18.5644C4.67748 18.9826 5.01744 19.3225 5.43558 19.5356C5.60936 19.6241 5.85847 19.6963 6.3456 19.7361C6.8457 19.7769 7.49269 19.7778 8.44445 19.7778H15.5556C16.5073 19.7778 17.1543 19.7769 17.6544 19.7361C18.1415 19.6963 18.3906 19.6241 18.5644 19.5356C18.9826 19.3225 19.3225 18.9826 19.5356 18.5644C19.6241 18.3906 19.6963 18.1415 19.7361 17.6544C19.7769 17.1543 19.7778 16.5073 19.7778 15.5556V8.44445C19.7778 7.49269 19.7769 6.8457 19.7361 6.3456C19.6963 5.85847 19.6241 5.60936 19.5356 5.43558C19.3225 5.01744 18.9826 4.67748 18.5644 4.46443C18.3906 4.37589 18.1415 4.30375 17.6544 4.26395C17.1543 4.22309 16.5073 4.22222 15.5556 4.22222H8.44445C7.49269 4.22222 6.8457 4.22309 6.3456 4.26395Z" fill="white"/>
<path fill-rule="evenodd" clip-rule="evenodd" d="M7.55556 8.66667C8.16921 8.66667 8.66667 8.16921 8.66667 7.55556C8.66667 6.94191 8.16921 6.44445 7.55556 6.44445C6.94191 6.44445 6.44445 6.94191 6.44445 7.55556C6.44445 8.16921 6.94191 8.66667 7.55556 8.66667ZM7.55556 10.8889C6.94191 10.8889 6.44445 11.3864 6.44445 12V16.4444C6.44445 17.0581 6.94191 17.5556 7.55556 17.5556C8.16921 17.5556 8.66667 17.0581 8.66667 16.4444V12C8.66667 11.3864 8.16921 10.8889 7.55556 10.8889ZM14.2222 13.1111C13.6086 13.1111 13.1111 13.6086 13.1111 14.2222V16.4444C13.1111 17.0581 12.6137 17.5556 12 17.5556C11.3864 17.5556 10.8889 17.0581 10.8889 16.4444V12C10.8889 11.3864 11.3864 10.8889 12 10.8889C12.3065 10.8889 12.5841 11.013 12.7851 11.2137C13.2202 11.0055 13.7076 10.8889 14.2222 10.8889C16.0632 10.8889 17.5556 12.3813 17.5556 14.2222V16.4444C17.5556 17.0581 17.0581 17.5556 16.4444 17.5556C15.8308 17.5556 15.3333 17.0581 15.3333 16.4444V14.2222C15.3333 13.6086 14.8359 13.1111 14.2222 13.1111Z" fill="white"/>
</svg>
